<svg width="449" height="193" viewBox="0 0 449 193" fill="none" xmlns="http://www.w3.org/2000/svg">
<path d="M190 10L439 10" stroke="#524E4E" stroke-width="20" stroke-linecap="round"/>
<path d="M82.616 124.976H47.032L41.144 142H22.328L54.456 52.528H75.32L107.448 142H88.504L82.616 124.976ZM77.752 110.64L64.824 73.264L51.896 110.64H77.752ZM137.377 127.792H166.817V142H119.457V52.656H137.377V127.792ZM196.127 127.792H225.567V142H178.207V52.656H196.127V127.792Z" fill="#FFC107"/>
<path d="M410.872 55.656L380.664 113.896V145H362.744V113.896L332.408 55.656H352.632L371.832 96.488L390.904 55.656H410.872Z" fill="#FFC107"/>
<line x1="10" y1="183" x2="241" y2="183" stroke="#524E4E" stroke-width="20" stroke-linecap="round"/>
<line x1="301.573" y1="116.551" x2="324" y2="138.978" stroke="#FFC107" stroke-width="14" stroke-linecap="round"/>
<path d="M315.02 90.5102C315.02 112.331 297.331 130.02 275.51 130.02C253.689 130.02 236 112.331 236 90.5102C236 68.6893 253.689 51 275.51 51C297.331 51 315.02 68.6893 315.02 90.5102ZM249.556 90.5102C249.556 104.844 261.176 116.465 275.51 116.465C289.844 116.465 301.465 104.844 301.465 90.5102C301.465 76.1759 289.844 64.5557 275.51 64.5557C261.176 64.5557 249.556 76.1759 249.556 90.5102Z" fill="#FFC107"/>
</svg>
